<?xml version="1.0" encoding="UTF-8" standalone="no"?>
<svg width="773px" height="817px" viewBox="0 0 773 817" version="1.1" xmlns="http://www.w3.org/2000/svg" xmlns:xlink="http://www.w3.org/1999/xlink" xmlns:sketch="http://www.bohemiancoding.com/sketch/ns">
    <title>Mindloops</title>
    <defs>
        <path id="path-1" d="M156.4766,121.4309 C156.0097,120.4973 156.0097,119.5636 155.5429,118.6299 C155.0761,116.7626 154.1424,114.8952 153.6756,113.0279 C151.8082,107.8927 149.9409,103.2243 148.0735,98.556 C127.9996,55.1402 89.719,21.5279 44.9027,0.5203 C27.6297,20.1274 12.2241,43.4693 0.5532,70.0789 L8.9563,78.0151 C38.8338,106.4922 60.3083,156.9105 68.2445,203.5941 C80.8491,278.7548 69.1782,373.9894 40.2343,400.1323 C54.7062,393.1297 67.7777,384.2598 79.9154,374.4563 C80.3822,373.5226 80.8491,373.0558 80.8491,372.1221 C84.5838,365.5864 88.3185,358.5838 92.0532,352.0481 C97.1884,342.2446 102.3236,332.9078 107.4588,324.5048 C112.594,315.6349 117.7292,307.2318 122.8644,298.8288 C132.6679,282.4895 141.5378,267.0839 148.5404,250.7446 C158.8108,226.0023 164.4128,198.4589 163.0123,158.7778 C162.0786,145.7064 159.7444,133.5687 156.4766,121.4309 L156.4766,121.4309 L156.4766,121.4309 Z"></path>
        <path id="path-3" d="M28.7522,313.2598 C31.5532,313.7267 34.3542,313.2598 37.1553,312.3262 C72.6348,299.7216 89.4409,194.6834 75.9027,112.0533 C69.367,71.4386 53.4945,28.4896 30.6195,0.0126 C9.6119,47.1631 -1.5922,103.6503 0.742,165.2727 C3.0762,229.2293 13.8134,283.8491 28.7522,313.2598 L28.7522,313.2598 L28.7522,313.2598 Z"></path>
        <path id="path-5" d="M56.0482,70.0023 C49.9793,48.061 36.9079,20.5176 20.5686,0.9105 L20.5686,0.9105 C20.1018,0.9105 20.1018,0.4437 20.1018,0.4437 C5.163,45.7268 -0.439,98.4793 0.9615,141.8951 L0.9615,141.8951 L0.9615,146.0966 C1.8952,172.2395 11.2319,226.8593 27.5712,252.0685 C29.4385,252.0685 31.3059,252.0685 33.64,251.6017 C69.5864,238.5302 70.987,121.8211 56.0482,70.0023 L56.0482,70.0023 L56.0482,70.0023 Z"></path>
        <path id="path-7" d="M146.2216,341.8644 L130.3491,327.3925 L124.2803,321.7905 C100.9385,301.2496 81.3313,238.6936 78.5303,160.7319 C76.1961,103.311 87.4002,48.6912 107.4742,0.607 C96.7369,-0.7935 85.5329,0.1402 73.8619,5.2754 C38.3824,20.681 14.5737,57.561 0.1018,100.9768 L4.3033,105.1784 L6.6375,107.5125 C28.5788,128.987 45.8518,167.2676 53.3211,193.8773 C68.2599,245.6961 65.9257,352.1348 29.5125,364.7394 L28.5788,364.7394 C68.2599,373.1425 110.2752,370.8083 150.8899,357.27 C155.5583,355.4027 160.2267,354.0022 164.895,351.668 C159.7598,351.668 155.0915,349.3338 150.4231,345.5991 L146.2216,341.8644 L146.2216,341.8644 Z"></path>
        <path id="path-9" d="M118.1681,259.3338 C95.76,242.0609 81.288,168.3007 79.8875,137.9563 C78.487,96.4079 83.6222,45.9896 97.6273,1.1733 C90.1579,0.2396 82.6885,1.1733 75.2192,5.3748 C35.0712,27.7829 4.72687,92.6732 0.0585,173.9027 C31.8034,222.9206 80.3544,256.9996 134.9742,271.9384 L122.8365,262.6017 L118.1681,259.3338 L118.1681,259.3338 Z"></path>
        <path id="path-11" d="M360.4307,508.2011 C358.5634,508.668 356.6961,509.1348 354.3619,509.1348 C349.6935,511.0022 345.0251,512.8695 340.3568,514.7369 C299.2752,528.7419 257.2599,530.6093 218.0456,522.2062 C213.3773,523.6067 208.7089,522.6731 204.5074,519.4052 L204.5074,519.4052 C149.8875,504.4665 101.3365,469.9206 69.59167,421.3696 C74.72687,340.14 104.6044,275.2498 144.7523,252.8416 C152.2217,248.6401 159.6911,247.2396 167.1605,248.6401 C152.6885,293.4564 148.0202,343.8747 149.4207,385.4232 C150.8212,415.7675 165.2931,489.5277 187.7013,506.8006 L191.9028,510.0685 L204.0406,519.4052 C201.2395,517.071 198.4385,513.8032 195.6375,510.0685 C179.2982,484.8593 170.4283,430.2395 169.0278,404.0966 L169.0278,399.8951 C168.561,356.4793 173.6962,303.7268 189.1018,258.4437 L189.5686,258.9105 C190.9691,259.8442 191.9028,261.2447 193.3033,262.1784 L189.1018,257.9768 C203.5737,214.561 227.3824,177.681 262.8619,162.7422 C274.5329,157.607 285.7369,156.6733 296.4742,158.0738 C276.4002,205.6912 265.1961,260.7778 267.5303,318.1987 C270.7982,396.1604 289.9385,458.2496 313.2803,479.2573 L319.3491,484.8593 L335.2216,499.3313 L339.8899,503.5328 C338.0226,502.1323 336.6221,500.2649 335.2216,498.3976 C332.8874,495.1297 330.0864,491.395 327.7522,486.7267 C312.3466,457.316 302.0762,403.163 299.742,339.2064 C297.4078,277.584 308.6119,221.0968 329.6195,173.9463 L329.6195,173.4794 C332.4206,175.8136 335.6884,178.1478 338.4894,180.9488 L330.0864,173.0126 C342.2241,146.8698 357.1629,123.5279 374.4358,103.454 C377.2369,100.653 379.571,97.3851 382.3721,94.5841 C405.7139,70.7754 432.7904,52.5688 462.2011,42.7652 C459.4001,35.2959 457.5327,27.3596 456.5991,18.9566 C456.1322,12.8877 455.6654,6.8188 456.5991,0.75 C415.5174,11.954 377.2369,39.0306 345.9588,76.8443 C342.691,80.579 339.4231,84.7805 336.6221,88.982 C316.0813,83.38 295.0737,79.6453 274.066,79.1785 L257.7267,79.1785 C223.6477,80.579 191.436,88.982 163.8926,106.255 C110.6733,138.9335 97.60185,156.2065 68.19116,208.959 C64.45647,219.6962 60.72177,230.9003 56.98708,241.6376 C42.98199,258.4437 41.58148,260.311 42.51515,282.2523 C42.98199,288.788 43.44883,295.7906 43.44883,302.3263 C40.18097,306.061 36.91312,309.7957 33.17843,313.0635 C23.37486,323.3339 13.5713,334.0712 3.767732,344.3416 C-0.9006317,351.3441 0.03304116,357.8798 2.367223,364.4155 C8.902933,370.4844 15.90548,376.0864 22.44119,382.1553 C25.70904,385.89 29.44373,389.1579 32.71159,392.8926 C31.31108,404.0966 28.51006,414.367 22.90803,423.7038 C23.8417,428.3721 26.64272,433.0405 27.57639,437.7088 C26.17588,441.9104 23.37486,445.6451 21.97435,449.3798 C22.90803,457.7828 24.30853,465.2522 25.24221,473.1884 C28.04323,492.7955 24.30853,501.1986 16.83915,519.4052 C14.03813,532.0098 14.50497,543.21388 20.57384,550.68326 C29.44373,559.55315 39.71414,561.88733 49.05086,564.68835 C66.79065,567.95621 92.46665,560.48682 106.9386,581.49446 C115.8085,594.09905 120.4768,611.83883 122.811,630.979122 C168.0941,597.83374 232.0507,579.62712 301.6094,586.16283 C336.6221,589.43068 369.3006,598.76741 398.2445,612.30567 C396.3772,598.30057 394.5098,584.29548 394.043,570.75722 C392.6425,548.81591 393.1093,528.2751 395.9103,511.469 C396.844,507.7343 397.3108,503.9996 398.2445,500.7318 C400.5787,492.3287 404.7802,484.3925 408.9817,476.4563 C396.844,486.2598 383.3057,494.6629 369.3006,502.1323 C366.9665,504.9333 363.6986,506.8006 360.4307,508.2011 L360.4307,508.2011 L360.4307,508.2011 Z"></path>
    </defs>
    <g id="Page-1" stroke="none" stroke-width="1" fill="none" fill-rule="evenodd" sketch:type="MSPage">
        <g id="logo" sketch:type="MSLayerGroup" transform="translate(137.000000, 5.000000)">
            <g id="Group-3" transform="translate(330.000000, 102.000000)">
                <mask id="mask-2" sketch:name="Clip 2" fill="white">
                    <use xlink:href="#path-1"></use>
                </mask>
                <g id="Clip-2"></g>
                <path d="M-4.4468,-4.4797 L168.2248,-4.4797 L168.2248,405.1323 L-4.4468,405.1323 L-4.4468,-4.4797 Z" id="Fill-1" fill="#44BBF8" sketch:type="MSShapeGroup" mask="url(#mask-2)"></path>
            </g>
            <g id="Group-6" transform="translate(299.000000, 173.000000)">
                <mask id="mask-4" sketch:name="Clip 5" fill="white">
                    <use xlink:href="#path-3"></use>
                </mask>
                <g id="Clip-5"></g>
                <path d="M-4.5623,-4.9874 L85.5715,-4.9874 L85.5715,318.443 L-4.5623,318.443 L-4.5623,-4.9874 Z" id="Fill-4" fill="#44BBF8" sketch:type="MSShapeGroup" mask="url(#mask-4)"></path>
            </g>
            <g id="Group-9" transform="translate(169.000000, 258.000000)">
                <mask id="mask-6" sketch:name="Clip 8" fill="white">
                    <use xlink:href="#path-5"></use>
                </mask>
                <g id="Clip-8"></g>
                <path d="M-4.2463,-4.5563 L70.0016,-4.5563 L70.0016,257.0685 L-4.2463,257.0685 L-4.2463,-4.5563 Z" id="Fill-7" fill="#44BBF8" sketch:type="MSShapeGroup" mask="url(#mask-6)"></path>
            </g>
            <g id="Group-12" transform="translate(189.000000, 157.000000)">
                <mask id="mask-8" sketch:name="Clip 11" fill="white">
                    <use xlink:href="#path-7"></use>
                </mask>
                <g id="Clip-11"></g>
                <path d="M-4.8982,-4.9802 L169.895,-4.9802 L169.895,374.644 L-4.8982,374.644 L-4.8982,-4.9802 Z" id="Fill-10" fill="#44BBF8" sketch:type="MSShapeGroup" mask="url(#mask-8)"></path>
            </g>
            <g id="Group-15" transform="translate(70.000000, 247.000000)">
                <mask id="mask-10" sketch:name="Clip 14" fill="white">
                    <use xlink:href="#path-9"></use>
                </mask>
                <g id="Clip-14"></g>
                <path d="M-4.9415,-4.1576 L139.9742,-4.1576 L139.9742,276.9384 L-4.9415,276.9384 L-4.9415,-4.1576 Z" id="Fill-13" fill="#44BBF8" sketch:type="MSShapeGroup" mask="url(#mask-10)"></path>
            </g>
            <g id="Group-18">
                <mask id="mask-12" sketch:name="Clip 17" fill="white">
                    <use xlink:href="#path-11"></use>
                </mask>
                <g id="Clip-17"></g>
                <path d="M-4.561414,-4.25 L467.2011,-4.25 L467.2011,635.979122 L-4.561414,635.979122 L-4.561414,-4.25 Z" id="Fill-16" fill="#004F7F" sketch:type="MSShapeGroup" mask="url(#mask-12)"></path>
            </g>
        </g>
        <text id="mindloops" fill="#004F7F" sketch:type="MSTextLayer" font-family="Montserrat" font-size="144" font-weight="normal">
            <tspan x="0" y="780">mindloops</tspan>
        </text>
    </g>
</svg>