<?xml version="1.0" standalone="no"?>
<!DOCTYPE svg PUBLIC "-//W3C//DTD SVG 20010904//EN"
 "http://www.w3.org/TR/2001/REC-SVG-20010904/DTD/svg10.dtd">
<svg version="1.0" xmlns="http://www.w3.org/2000/svg"
 width="800.000000pt" height="800.000000pt" viewBox="0 0 800.000000 800.000000"
 preserveAspectRatio="xMidYMid meet">
<metadata>
Created by potrace 1.11, written by Peter Selinger 2001-2013
</metadata>
<g transform="translate(0.000000,800.000000) scale(0.100000,-0.100000)"
fill="#000000" stroke="none">
<path d="M5985 7121 c-133 -46 -180 -68 -367 -171 -126 -68 -318 -222 -466
-370 -85 -85 -215 -235 -255 -293 -12 -17 -16 -17 -72 -2 -57 15 -100 25 -205
46 -24 5 -69 12 -99 15 -30 3 -64 8 -75 11 -12 2 -109 6 -216 8 -175 3 -321
-7 -425 -28 -16 -4 -46 -9 -65 -12 -206 -34 -460 -145 -708 -308 -311 -206
-459 -348 -628 -607 -140 -215 -196 -323 -257 -498 -49 -143 -63 -172 -116
-243 -33 -43 -66 -98 -73 -122 -12 -40 -15 -291 -5 -375 4 -31 -3 -42 -88
-130 -51 -54 -110 -115 -130 -137 -21 -22 -68 -72 -105 -111 -75 -79 -100
-120 -104 -168 -4 -42 12 -107 28 -120 112 -88 297 -272 291 -289 -2 -6 -6
-25 -8 -42 -11 -72 -26 -121 -64 -204 l-24 -54 24 -67 25 -66 -29 -59 c-25
-51 -28 -67 -23 -115 3 -30 7 -57 9 -60 9 -15 20 -150 19 -245 0 -98 -4 -120
-33 -205 -18 -52 -37 -99 -41 -105 -26 -34 -33 -197 -12 -271 34 -117 221
-210 442 -219 243 -10 304 -24 387 -85 98 -72 186 -269 218 -490 13 -86 6 -85
95 -25 154 104 330 190 529 259 131 46 346 99 456 112 22 3 47 7 55 9 107 29
652 26 815 -5 28 -5 67 -12 88 -15 157 -22 437 -104 628 -184 52 -21 95 -38
97 -36 2 1 -2 42 -8 91 -26 206 -33 310 -34 519 -1 235 11 358 49 498 16 63
77 201 99 227 7 8 57 96 111 195 54 99 145 260 204 358 58 98 111 186 116 195
170 292 211 369 265 494 51 120 85 232 110 363 31 160 31 169 35 405 3 192 1
241 -16 333 -35 192 -97 379 -169 512 -51 93 -54 98 -75 130 -193 294 -467
535 -825 724 l-90 47 102 101 c57 56 121 116 143 135 22 18 42 36 45 39 3 3
55 40 115 82 125 85 261 159 383 208 58 23 81 37 77 47 -27 72 -47 190 -49
289 0 68 -5 113 -11 112 -5 0 -46 -13 -90 -28z m-1030 -1811 c195 -203 391
-573 475 -895 5 -16 15 -55 23 -85 17 -63 53 -243 61 -310 4 -25 9 -63 11 -85
18 -134 23 -253 20 -515 -1 -162 -5 -308 -8 -325 -3 -16 -8 -57 -11 -91 -4
-33 -9 -71 -11 -85 -2 -13 -9 -53 -15 -89 -5 -36 -12 -76 -16 -90 -3 -14 -8
-38 -11 -55 -10 -60 -74 -258 -104 -323 -80 -178 -172 -268 -302 -297 -18 -3
-26 -2 -23 4 4 5 -2 9 -12 8 -29 -2 -89 31 -130 71 -41 41 -72 79 -72 88 0 3
-9 19 -20 34 l-20 29 38 -1 c124 -1 259 160 346 413 46 136 94 358 112 514 3
33 8 69 10 80 22 116 22 632 -1 805 -2 19 -6 53 -9 75 -9 80 -29 192 -48 280
-10 50 -21 99 -23 110 -10 46 -80 256 -112 340 -71 181 -188 396 -256 473 -11
12 -17 22 -13 22 5 0 2 8 -5 18 -18 24 64 -52 126 -118z m-1463 -812 c125
-129 242 -320 358 -583 60 -134 130 -385 145 -515 3 -25 7 -56 10 -70 13 -75
19 -198 20 -385 0 -261 -10 -376 -50 -556 -50 -225 -123 -360 -230 -425 -58
-36 -116 -39 -162 -8 -15 10 -31 17 -36 16 -4 -1 -6 2 -5 6 2 5 -14 25 -34 46
-35 35 -129 209 -127 237 0 11 2 10 6 -1 3 -8 25 -57 50 -107 49 -102 58 -108
128 -79 123 52 218 265 269 606 27 176 28 715 2 845 -2 11 -7 47 -10 80 -32
286 -181 663 -350 885 -25 33 -43 60 -40 60 3 0 29 -24 56 -52z m-275 -1140
c-3 -8 -6 -5 -6 6 -1 11 2 17 5 13 3 -3 4 -12 1 -19z m0 -220 c-1 -40 -3 -10
-3 67 0 77 1 110 3 73 2 -37 2 -100 0 -140z m11 -139 l-3 -44 -5 52 c-3 29 -1
48 3 44 5 -5 7 -28 5 -52z m16 -119 c4 -25 3 -31 -4 -20 -5 8 -10 26 -10 39 0
32 6 24 14 -19z m-944 -40 c12 -16 19 -30 16 -30 -2 0 -14 14 -26 30 -12 17
-19 30 -16 30 2 0 14 -13 26 -30z m947 -22 c-3 -8 -6 -5 -6 6 -1 11 2 17 5 13
3 -3 4 -12 1 -19z m-906 -35 c13 -16 12 -17 -3 -4 -10 7 -18 15 -18 17 0 8 8
3 21 -13z m916 -25 c-3 -7 -5 -2 -5 12 0 14 2 19 5 13 2 -7 2 -19 0 -25z
m-877 -23 c13 -14 21 -25 18 -25 -2 0 -15 11 -28 25 -13 14 -21 25 -18 25 2 0
15 -11 28 -25z m887 -32 c-3 -10 -5 -4 -5 12 0 17 2 24 5 18 2 -7 2 -21 0 -30z
m10 -55 c-3 -7 -5 -2 -5 12 0 14 2 19 5 13 2 -7 2 -19 0 -25z m-811 -10 l29
-33 -32 29 c-18 17 -33 31 -33 33 0 8 8 1 36 -29z m821 -40 c-3 -7 -5 -2 -5
12 0 14 2 19 5 13 2 -7 2 -19 0 -25z m21 -73 c-3 -3 -9 2 -12 12 -6 14 -5 15
5 6 7 -7 10 -15 7 -18z m-702 -27 l29 -33 -32 29 c-31 28 -38 36 -30 36 2 0
16 -15 33 -32z m718 -28 c4 -25 3 -31 -4 -20 -5 8 -10 26 -10 39 0 32 6 24 14
-19z m-644 -35 c13 -14 21 -25 18 -25 -2 0 -15 11 -28 25 -13 14 -21 25 -18
25 2 0 15 -11 28 -25z m657 -27 c-3 -8 -6 -5 -6 6 -1 11 2 17 5 13 3 -3 4 -12
1 -19z m-606 -15 c13 -16 12 -17 -3 -4 -17 13 -22 21 -14 21 2 0 10 -8 17 -17z
m616 -25 c-3 -8 -6 -5 -6 6 -1 11 2 17 5 13 3 -3 4 -12 1 -19z m-576 -5 c13
-16 12 -17 -3 -4 -17 13 -22 21 -14 21 2 0 10 -8 17 -17z m40 -30 c13 -16 12
-17 -3 -4 -10 7 -18 15 -18 17 0 8 8 3 21 -13z m563 -33 c5 -17 4 -20 -2 -10
-5 8 -13 26 -16 40 -5 17 -4 20 2 10 5 -8 13 -26 16 -40z m-493 -17 c13 -16
12 -17 -3 -4 -17 13 -22 21 -14 21 2 0 10 -8 17 -17z m59 -39 c0 -2 -9 0 -20
6 -11 6 -20 13 -20 16 0 2 9 0 20 -6 11 -6 20 -13 20 -16z m115 -72 c-3 -3
-11 0 -18 7 -9 10 -8 11 6 5 10 -3 15 -9 12 -12z m80 -32 c3 -6 -1 -7 -9 -4
-18 7 -21 14 -7 14 6 0 13 -4 16 -10z m195 -90 c8 -5 11 -10 5 -10 -5 0 -17 5
-25 10 -8 5 -10 10 -5 10 6 0 17 -5 25 -10z m1650 -14 c0 -2 -7 -7 -16 -10 -8
-3 -12 -2 -9 4 6 10 25 14 25 6z m-1565 -16 c13 -6 15 -9 5 -9 -8 0 -22 4 -30
9 -18 12 -2 12 25 0z m1515 -4 c0 -2 -7 -7 -16 -10 -8 -3 -12 -2 -9 4 6 10 25
14 25 6z m-1403 -32 c-3 -3 -12 -4 -19 -1 -8 3 -5 6 6 6 11 1 17 -2 13 -5z
m1310 0 c-3 -3 -12 -4 -19 -1 -8 3 -5 6 6 6 11 1 17 -2 13 -5z m-57 -14 c-8
-5 -22 -9 -30 -9 -10 0 -8 3 5 9 27 12 43 12 25 0z m-53 -16 c-3 -3 -12 -4
-19 -1 -8 3 -5 6 6 6 11 1 17 -2 13 -5z m-44 -11 c-7 -2 -19 -2 -25 0 -7 3 -2
5 12 5 14 0 19 -2 13 -5z m-78 -13 c-3 -5 -14 -10 -23 -9 -14 0 -13 2 3 9 27
11 27 11 20 0z m-95 -14 c0 -2 -11 -6 -25 -8 -13 -3 -22 -1 -19 3 5 9 44 13
44 5z m-587 -13 c-7 -2 -19 -2 -25 0 -7 3 -2 5 12 5 14 0 19 -2 13 -5z m487 3
c0 -2 -7 -7 -16 -10 -8 -3 -12 -2 -9 4 6 10 25 14 25 6z m37 -2 c-3 -3 -12 -4
-19 -1 -8 3 -5 6 6 6 11 1 17 -2 13 -5z m-390 -10 c-3 -3 -12 -4 -19 -1 -8 3
-5 6 6 6 11 1 17 -2 13 -5z m220 0 c-3 -3 -12 -4 -19 -1 -8 3 -5 6 6 6 11 1
17 -2 13 -5z m61 -1 c-10 -2 -26 -2 -35 0 -10 3 -2 5 17 5 19 0 27 -2 18 -5z"/>
</g>
</svg>
