<?xml version="1.0"?>
<svg xmlns="http://www.w3.org/2000/svg" xmlns:xlink="http://www.w3.org/1999/xlink" width="3232" height="641" viewBox="0 0 3232 641" version="1.1">
	<title>logo-banner</title>
	<defs>
		<path id="path-1" d="M156.48 121.43C156.01 120.5 156.01 119.56 155.54 118.63 155.08 116.76 154.14 114.9 153.68 113.03 151.81 107.89 149.94 103.22 148.07 98.56 128 55.14 89.72 21.53 44.9 0.52 27.63 20.13 12.22 43.47 0.55 70.08L8.96 78.02C38.83 106.49 60.31 156.91 68.24 203.59 80.85 278.75 69.18 373.99 40.23 400.13 54.71 393.13 67.78 384.26 79.92 374.46 80.38 373.52 80.85 373.06 80.85 372.12 84.58 365.59 88.32 358.58 92.05 352.05 97.19 342.24 102.32 332.91 107.46 324.5 112.59 315.63 117.73 307.23 122.86 298.83 132.67 282.49 141.54 267.08 148.54 250.74 158.81 226 164.41 198.46 163.01 158.78 162.08 145.71 159.74 133.57 156.48 121.43L156.48 121.43 156.48 121.43Z"/>
		<path id="path-3" d="M28.75 313.26C31.55 313.73 34.35 313.26 37.16 312.33 72.63 299.72 89.44 194.68 75.9 112.05 69.37 71.44 53.49 28.49 30.62 0.01 9.61 47.16-1.59 103.65 0.74 165.27 3.08 229.23 13.81 283.85 28.75 313.26L28.75 313.26 28.75 313.26Z"/>
		<path id="path-5" d="M56.05 70C49.98 48.06 36.91 20.52 20.57 0.91L20.57 0.91C20.1 0.91 20.1 0.44 20.1 0.44 5.16 45.73-0.44 98.48 0.96 141.9L0.96 141.9 0.96 146.1C1.9 172.24 11.23 226.86 27.57 252.07 29.44 252.07 31.31 252.07 33.64 251.6 69.59 238.53 70.99 121.82 56.05 70L56.05 70 56.05 70Z"/>
		<path id="path-7" d="M146.22 341.86L130.35 327.39 124.28 321.79C100.94 301.25 81.33 238.69 78.53 160.73 76.2 103.31 87.4 48.69 107.47 0.61 96.74-0.79 85.53 0.14 73.86 5.28 38.38 20.68 14.57 57.56 0.1 100.98L4.3 105.18 6.64 107.51C28.58 128.99 45.85 167.27 53.32 193.88 68.26 245.7 65.93 352.13 29.51 364.74L28.58 364.74C68.26 373.14 110.28 370.81 150.89 357.27 155.56 355.4 160.23 354 164.9 351.67 159.76 351.67 155.09 349.33 150.42 345.6L146.22 341.86 146.22 341.86Z"/>
		<path id="path-9" d="M118.17 259.33C95.76 242.06 81.29 168.3 79.89 137.96 78.49 96.41 83.62 45.99 97.63 1.17 90.16 0.24 82.69 1.17 75.22 5.37 35.07 27.78 4.73 92.67 0.06 173.9 31.8 222.92 80.35 257 134.97 271.94L122.84 262.6 118.17 259.33 118.17 259.33Z"/>
		<path id="path-11" d="M360.43 508.2C358.56 508.67 356.7 509.13 354.36 509.13 349.69 511 345.03 512.87 340.36 514.74 299.28 528.74 257.26 530.61 218.05 522.21 213.38 523.61 208.71 522.67 204.51 519.41L204.51 519.41C149.89 504.47 101.34 469.92 69.59 421.37 74.73 340.14 104.6 275.25 144.75 252.84 152.22 248.64 159.69 247.24 167.16 248.64 152.69 293.46 148.02 343.87 149.42 385.42 150.82 415.77 165.29 489.53 187.7 506.8L191.9 510.07 204.04 519.41C201.24 517.07 198.44 513.8 195.64 510.07 179.3 484.86 170.43 430.24 169.03 404.1L169.03 399.9C168.56 356.48 173.7 303.73 189.1 258.44L189.57 258.91C190.97 259.84 191.9 261.24 193.3 262.18L189.1 257.98C203.57 214.56 227.38 177.68 262.86 162.74 274.53 157.61 285.74 156.67 296.47 158.07 276.4 205.69 265.2 260.78 267.53 318.2 270.8 396.16 289.94 458.25 313.28 479.26L319.35 484.86 335.22 499.33 339.89 503.53C338.02 502.13 336.62 500.26 335.22 498.4 332.89 495.13 330.09 491.4 327.75 486.73 312.35 457.32 302.08 403.16 299.74 339.21 297.41 277.58 308.61 221.1 329.62 173.95L329.62 173.48C332.42 175.81 335.69 178.15 338.49 180.95L330.09 173.01C342.22 146.87 357.16 123.53 374.44 103.45 377.24 100.65 379.57 97.39 382.37 94.58 405.71 70.78 432.79 52.57 462.2 42.77 459.4 35.3 457.53 27.36 456.6 18.96 456.13 12.89 455.67 6.82 456.6 0.75 415.52 11.95 377.24 39.03 345.96 76.84 342.69 80.58 339.42 84.78 336.62 88.98 316.08 83.38 295.07 79.65 274.07 79.18L257.73 79.18C223.65 80.58 191.44 88.98 163.89 106.26 110.67 138.93 97.6 156.21 68.19 208.96 64.46 219.7 60.72 230.9 56.99 241.64 42.98 258.44 41.58 260.31 42.52 282.25 42.98 288.79 43.45 295.79 43.45 302.33 40.18 306.06 36.91 309.8 33.18 313.06 23.37 323.33 13.57 334.07 3.77 344.34 -0.9 351.34 0.03 357.88 2.37 364.42 8.9 370.48 15.91 376.09 22.44 382.16 25.71 385.89 29.44 389.16 32.71 392.89 31.31 404.1 28.51 414.37 22.91 423.7 23.84 428.37 26.64 433.04 27.58 437.71 26.18 441.91 23.37 445.65 21.97 449.38 22.91 457.78 24.31 465.25 25.24 473.19 28.04 492.8 24.31 501.2 16.84 519.41 14.04 532.01 14.5 543.21 20.57 550.68 29.44 559.55 39.71 561.89 49.05 564.69 66.79 567.96 92.47 560.49 106.94 581.49 115.81 594.1 120.48 611.84 122.81 630.98 168.09 597.83 232.05 579.63 301.61 586.16 336.62 589.43 369.3 598.77 398.24 612.31 396.38 598.3 394.51 584.3 394.04 570.76 392.64 548.82 393.11 528.28 395.91 511.47 396.84 507.73 397.31 504 398.24 500.73 400.58 492.33 404.78 484.39 408.98 476.46 396.84 486.26 383.31 494.66 369.3 502.13 366.97 504.93 363.7 506.8 360.43 508.2L360.43 508.2 360.43 508.2Z"/>
	</defs>
	<g id="Page-1" stroke="none" stroke-width="1" fill="none" fill-rule="evenodd">
		<g id="logo" transform="translate(5.000000, 5.000000)">
			<g id="Group-3" transform="translate(330.000000, 102.000000)">
				<mask id="mask-2" fill="white">
					<use xlink:href="#path-1"/>
				</mask>
				<g id="Clip-2"/>
				<path d="M-4.45-4.48L168.22-4.48 168.22 405.13 -4.45 405.13 -4.45-4.48Z" id="Fill-1" fill="#44BBF8" mask="url(#mask-2)"/>
			</g>
			<g id="Group-6" transform="translate(299.000000, 173.000000)">
				<mask id="mask-4" fill="white">
					<use xlink:href="#path-3"/>
				</mask>
				<g id="Clip-5"/>
				<path d="M-4.56-4.99L85.57-4.99 85.57 318.44 -4.56 318.44 -4.56-4.99Z" id="Fill-4" fill="#44BBF8" mask="url(#mask-4)"/>
			</g>
			<g id="Group-9" transform="translate(169.000000, 258.000000)">
				<mask id="mask-6" fill="white">
					<use xlink:href="#path-5"/>
				</mask>
				<g id="Clip-8"/>
				<path d="M-4.25-4.56L70-4.56 70 257.07 -4.25 257.07 -4.25-4.56Z" id="Fill-7" fill="#44BBF8" mask="url(#mask-6)"/>
			</g>
			<g id="Group-12" transform="translate(189.000000, 157.000000)">
				<mask id="mask-8" fill="white">
					<use xlink:href="#path-7"/>
				</mask>
				<g id="Clip-11"/>
				<path d="M-4.9-4.98L169.9-4.98 169.9 374.64 -4.9 374.64 -4.9-4.98Z" id="Fill-10" fill="#44BBF8" mask="url(#mask-8)"/>
			</g>
			<g id="Group-15" transform="translate(70.000000, 247.000000)">
				<mask id="mask-10" fill="white">
					<use xlink:href="#path-9"/>
				</mask>
				<g id="Clip-14"/>
				<path d="M-4.94-4.16L139.97-4.16 139.97 276.94 -4.94 276.94 -4.94-4.16Z" id="Fill-13" fill="#44BBF8" mask="url(#mask-10)"/>
			</g>
			<g id="Group-18">
				<mask id="mask-12" fill="white">
					<use xlink:href="#path-11"/>
				</mask>
				<g id="Clip-17"/>
				<path d="M-4.56-4.25L467.2-4.25 467.2 635.98 -4.56 635.98 -4.56-4.25Z" id="Fill-16" fill="#004F7F" mask="url(#mask-12)"/>
			</g>
		</g>
		<text id="mindloops" fill="#004F7F" font-family="Montserrat" font-size="500" font-weight="normal">
			<tspan x="551" y="489">mindloops</tspan>
		</text>
	</g>
</svg>
